<svg width="821" height="810" viewBox="0 0 821 810" fill="none" xmlns="http://www.w3.org/2000/svg">
<path fill-rule="evenodd" clip-rule="evenodd" d="M719.56 620.878C829.642 468.807 816.187 255.058 679.194 118.065C527.28 -33.8493 280.978 -33.8493 129.065 118.065C-22.8494 269.979 -22.8494 516.28 129.065 668.194C265.811 804.94 479.039 818.593 631.057 709.153L703.942 782.038C719.563 797.659 744.89 797.659 760.511 782.038L792.331 750.218C807.952 734.597 807.952 709.27 792.331 693.65L719.56 620.878Z" fill="#424242"/>
<circle cx="404.032" cy="393.032" r="335.191" transform="rotate(-45 404.032 393.032)" fill="url(#paint0_radial_204_22)"/>
<path d="M339.6 327.6L343.2 325C347.733 322.333 350.933 321 352.8 321C356.933 321 361.4 324.733 366.2 332.2C369.133 336.867 370.6 340.6 370.6 343.4C370.6 346.2 369.667 348.533 367.8 350.4C366.067 352.267 364 353.933 361.6 355.4C359.2 356.867 356.867 358.267 354.6 359.6C352.467 360.933 348 362.667 341.2 364.8C334.4 366.933 327.8 368 321.4 368C315.133 368 308.733 367.2 302.2 365.6C295.8 363.867 289.133 361.067 282.2 357.2C275.4 353.2 269.267 348.4 263.8 342.8C258.333 337.067 253.8 329.8 250.2 321C246.733 312.067 245 302.4 245 292C245 281.6 246.733 272.2 250.2 263.8C253.667 255.267 258.067 248.267 263.4 242.8C268.867 237.2 275.067 232.533 282 228.8C295.067 221.6 308.2 218 321.4 218C327.667 218 334 219 340.4 221C346.933 222.867 351.867 224.8 355.2 226.8L360 229.6C362.4 231.067 364.267 232.267 365.6 233.2C369.067 236 370.8 239.2 370.8 242.8C370.8 246.267 369.4 249.933 366.6 253.8C361.4 261 356.733 264.6 352.6 264.6C350.2 264.6 346.8 263.133 342.4 260.2C336.8 255.667 329.333 253.4 320 253.4C311.333 253.4 302.8 256.4 294.4 262.4C290.4 265.333 287.067 269.467 284.4 274.8C281.733 280.133 280.4 286.2 280.4 293C280.4 299.667 281.733 305.667 284.4 311C287.067 316.333 290.467 320.533 294.6 323.6C302.733 329.467 311.2 332.4 320 332.4C324.133 332.4 328 331.867 331.6 330.8C335.333 329.733 338 328.667 339.6 327.6Z" fill="white"/>
<path d="M521.3 224.8C522.633 222.667 524.567 221.2 527.1 220.4C529.633 219.6 532.767 219.2 536.5 219.2C540.367 219.2 543.433 219.533 545.7 220.2C547.967 220.867 549.7 221.667 550.9 222.6C552.1 223.533 552.967 224.933 553.5 226.8C554.3 229.067 554.7 232.533 554.7 237.2V297.6C554.7 315.2 549.233 331.2 538.3 345.6C532.967 352.4 526.1 357.933 517.7 362.2C509.3 366.333 499.967 368.4 489.7 368.4C479.567 368.4 470.3 366.267 461.9 362C453.633 357.733 446.9 352.133 441.7 345.2C430.9 331.067 425.5 315.067 425.5 297.2V237C425.5 233.8 425.567 231.467 425.7 230C425.967 228.4 426.633 226.6 427.7 224.6C428.767 222.6 430.567 221.2 433.1 220.4C435.633 219.6 439.033 219.2 443.3 219.2C447.567 219.2 450.967 219.6 453.5 220.4C456.033 221.2 457.767 222.6 458.7 224.6C460.3 227.667 461.1 231.867 461.1 237.2V297.2C461.1 305.333 463.1 313.067 467.1 320.4C469.1 324.133 472.1 327.133 476.1 329.4C480.1 331.667 484.833 332.8 490.3 332.8C500.033 332.8 507.3 329.2 512.1 322C516.9 314.8 519.3 306.467 519.3 297V235.8C519.3 230.6 519.967 226.933 521.3 224.8Z" fill="white"/>
<path d="M362.6 451.1C366.067 458.167 367.8 466.033 367.8 474.7C367.8 483.367 366.067 491.233 362.6 498.3C359.133 505.233 354.667 510.767 349.2 514.9C338.133 523.433 326.667 527.7 314.8 527.7H289.8V550.3C289.8 553.367 289.667 555.7 289.4 557.3C289.267 558.767 288.667 560.5 287.6 562.5C285.733 566.1 280.533 567.9 272 567.9C262.667 567.9 257.2 565.433 255.6 560.5C254.8 558.233 254.4 554.767 254.4 550.1V439.1C254.4 436.033 254.467 433.767 254.6 432.3C254.867 430.7 255.533 428.9 256.6 426.9C258.467 423.3 263.667 421.5 272.2 421.5H315C326.733 421.5 338.133 425.767 349.2 434.3C354.667 438.433 359.133 444.033 362.6 451.1ZM315 492.3C319 492.3 322.933 490.833 326.8 487.9C330.667 484.967 332.6 480.567 332.6 474.7C332.6 468.833 330.667 464.433 326.8 461.5C322.933 458.433 318.933 456.9 314.8 456.9H289.8V492.3H315Z" fill="white"/>
<path d="M435.828 444.93C435.828 442.664 437.665 440.828 439.93 440.828H446.768C449.033 440.828 450.87 442.664 450.87 444.93V451.767C450.87 454.033 449.033 455.87 446.768 455.87H439.93C437.665 455.87 435.828 454.033 435.828 451.767V444.93Z" fill="#30A48C"/>
<path fill-rule="evenodd" clip-rule="evenodd" d="M429.674 421C422.122 421 416 427.122 416 434.674V461.34C416 468.892 422.122 475.014 429.674 475.014H456.34C463.892 475.014 470.014 468.892 470.014 461.34V434.674C470.014 427.122 463.892 421 456.34 421H429.674ZM456.34 429.205H429.674C426.654 429.205 424.205 431.654 424.205 434.674V461.34C424.205 464.36 426.654 466.809 429.674 466.809H456.34C459.36 466.809 461.809 464.36 461.809 461.34V434.674C461.809 431.654 459.36 429.205 456.34 429.205Z" fill="#30A48C"/>
<path d="M528.814 444.93C528.814 442.664 530.651 440.828 532.916 440.828H539.753C542.019 440.828 543.856 442.664 543.856 444.93V451.767C543.856 454.033 542.019 455.87 539.753 455.87H532.916C530.651 455.87 528.814 454.033 528.814 451.767V444.93Z" fill="#30A48C"/>
<path fill-rule="evenodd" clip-rule="evenodd" d="M522.661 421C515.108 421 508.986 427.122 508.986 434.674V461.34C508.986 468.892 515.108 475.014 522.661 475.014H549.326C556.878 475.014 563 468.892 563 461.34V434.674C563 427.122 556.878 421 549.326 421H522.661ZM549.326 429.205H522.661C519.64 429.205 517.191 431.654 517.191 434.674V461.34C517.191 464.36 519.64 466.809 522.661 466.809H549.326C552.346 466.809 554.795 464.36 554.795 461.34V434.674C554.795 431.654 552.346 429.205 549.326 429.205Z" fill="#30A48C"/>
<path d="M439.93 533.814C437.665 533.814 435.828 535.651 435.828 537.916V544.754C435.828 547.019 437.665 548.856 439.93 548.856H446.768C449.033 548.856 450.87 547.019 450.87 544.754V537.916C450.87 535.651 449.033 533.814 446.768 533.814H439.93Z" fill="#30A48C"/>
<path fill-rule="evenodd" clip-rule="evenodd" d="M416 527.661C416 520.108 422.122 513.986 429.674 513.986H456.34C463.892 513.986 470.014 520.108 470.014 527.661V554.326C470.014 561.878 463.892 568 456.34 568H429.674C422.122 568 416 561.878 416 554.326V527.661ZM429.674 522.191H456.34C459.36 522.191 461.809 524.64 461.809 527.661V554.326C461.809 557.346 459.36 559.795 456.34 559.795H429.674C426.654 559.795 424.205 557.346 424.205 554.326V527.661C424.205 524.64 426.654 522.191 429.674 522.191Z" fill="#30A48C"/>
<path d="M420.102 480.484C417.837 480.484 416 482.32 416 484.586V491.423C416 493.689 417.837 495.526 420.102 495.526H426.94C429.205 495.526 431.042 493.689 431.042 491.423V484.586C431.042 482.32 429.205 480.484 426.94 480.484H420.102Z" fill="#30A48C"/>
<path d="M458.391 484.586C458.391 482.32 460.227 480.484 462.493 480.484H469.33C471.596 480.484 473.432 482.32 473.432 484.586V491.423C473.432 493.689 471.596 495.526 469.33 495.526H462.493C460.227 495.526 458.391 493.689 458.391 491.423V484.586Z" fill="#30A48C"/>
<path d="M486.423 423.051C484.158 423.051 482.321 424.888 482.321 427.154V433.991C482.321 436.256 484.158 438.093 486.423 438.093H493.261C495.526 438.093 497.363 436.256 497.363 433.991V427.154C497.363 424.888 495.526 423.051 493.261 423.051H486.423Z" fill="#30A48C"/>
<path d="M489.842 444.93C489.842 442.664 491.678 440.828 493.944 440.828H500.781C503.047 440.828 504.884 442.664 504.884 444.93V451.767C504.884 454.033 503.047 455.87 500.781 455.87H493.944C491.678 455.87 489.842 454.033 489.842 451.767V444.93Z" fill="#30A48C"/>
<path d="M478.902 455.87C476.637 455.87 474.8 457.706 474.8 459.972V466.809C474.8 469.075 476.637 470.912 478.902 470.912H485.74C488.005 470.912 489.842 469.075 489.842 466.809V459.972C489.842 457.706 488.005 455.87 485.74 455.87H478.902Z" fill="#30A48C"/>
<path d="M547.958 484.586C547.958 482.32 549.795 480.484 552.06 480.484H558.898C561.163 480.484 563 482.32 563 484.586V491.423C563 493.689 561.163 495.526 558.898 495.526H552.06C549.795 495.526 547.958 493.689 547.958 491.423V484.586Z" fill="#30A48C"/>
<path d="M477.535 495.526C475.269 495.526 473.433 497.362 473.433 499.628V506.465C473.433 508.731 475.269 510.567 477.535 510.567H484.372C486.638 510.567 488.474 508.731 488.474 506.465V499.628C488.474 497.362 486.638 495.526 484.372 495.526H477.535Z" fill="#30A48C"/>
<path d="M489.842 507.149C489.842 504.883 491.678 503.047 493.944 503.047H523.344C525.61 503.047 527.446 504.883 527.446 507.149V513.986C527.446 516.252 525.61 518.088 523.344 518.088H493.944C491.678 518.088 489.842 516.252 489.842 513.986V507.149Z" fill="#30A48C"/>
<path d="M533.6 503.047C531.334 503.047 529.498 504.883 529.498 507.149V513.986C529.498 516.252 531.334 518.088 533.6 518.088H540.437C542.703 518.088 544.54 516.252 544.54 513.986V507.149C544.54 504.883 542.703 503.047 540.437 503.047H533.6Z" fill="#30A48C"/>
<path d="M493.26 530.395C493.26 528.13 495.097 526.293 497.363 526.293H519.926C522.191 526.293 524.028 528.13 524.028 530.395V537.233C524.028 539.498 522.191 541.335 519.926 541.335H497.363C495.097 541.335 493.26 539.498 493.26 537.233V530.395Z" fill="#30A48C"/>
<path d="M533.6 552.958C531.334 552.958 529.498 554.795 529.498 557.06V563.898C529.498 566.163 531.334 568 533.6 568H540.437C542.703 568 544.54 566.163 544.54 563.898V557.06C544.54 554.795 542.703 552.958 540.437 552.958H533.6Z" fill="#30A48C"/>
<path d="M529.498 530.395C529.498 528.13 531.334 526.293 533.6 526.293H558.898C561.163 526.293 563 528.13 563 530.395V537.233C563 539.498 561.163 541.335 558.898 541.335H533.6C531.334 541.335 529.498 539.498 529.498 537.233V530.395Z" fill="#30A48C"/>
<path d="M492.577 480.484C490.311 480.484 488.474 482.32 488.474 484.586V491.995C488.474 494.26 490.311 496.097 492.577 496.097H540.437C542.703 496.097 544.539 494.26 544.539 491.995V484.586C544.539 482.32 542.703 480.484 540.437 480.484H492.577Z" fill="#30A48C"/>
<path d="M473.433 557.06C473.433 554.795 475.269 552.958 477.535 552.958H484.372C486.638 552.958 488.474 554.795 488.474 557.06V563.898C488.474 566.163 486.638 568 484.372 568H477.535C475.269 568 473.433 566.163 473.433 563.898V557.06Z" fill="#30A48C"/>
<path d="M508.986 552.958C506.72 552.958 504.884 554.795 504.884 557.06V563.898C504.884 566.163 506.72 568 508.986 568H515.823C518.089 568 519.926 566.163 519.926 563.898V557.06C519.926 554.795 518.089 552.958 515.823 552.958H508.986Z" fill="#30A48C"/>
<path d="M473.433 518.088C473.433 515.823 475.269 513.986 477.535 513.986H484.667C486.933 513.986 488.769 515.823 488.769 518.088V545.437C488.769 547.703 486.933 549.54 484.667 549.54H477.535C475.269 549.54 473.433 547.703 473.433 545.437V518.088Z" fill="#30A48C"/>
<path d="M433.777 493.474C431.511 493.474 429.674 495.311 429.674 497.577V504.414C429.674 506.68 431.511 508.516 433.777 508.516H456.339C458.605 508.516 460.442 506.68 460.442 504.414V497.577C460.442 495.311 458.605 493.474 456.339 493.474H433.777Z" fill="#30A48C"/>
<defs>
<radialGradient id="paint0_radial_204_22" cx="0" cy="0" r="1" gradientUnits="userSpaceOnUse" gradientTransform="translate(404.032 393.032) rotate(90) scale(335.191)">
<stop stop-color="#262626"/>
<stop offset="1" stop-color="#262929"/>
</radialGradient>
</defs>
</svg>
